<?xml version="1.0" encoding="UTF-8"?>
<svg id="Capa_1" data-name="Capa 1" xmlns="http://www.w3.org/2000/svg" viewBox="0 0 250 150">
  <defs>
    <style>
      .cls-1 {
        fill: #fff;
      }
    </style>
  </defs>
  <g>
    <path class="cls-1" d="M14.36,76.15c.05.08,1.78.14,3.22,1.27l.04-.03c-.06-.13-.26-.41-.44-.57-.1-.32-.15-.66-.1-.98.11-.62.16-1.16.39-2.23.02-.11.08-.23.11-.34-.18.06-.34.11-.42.11-.02.01-.03.03-.05.04-.06.04-.12.09-.17.14-.07-.03-.15-.05-.22-.08-.06-.02-.13-.04-.19-.07-.04-.02-.09-.06-.11-.09.02-.04.09-.06.12-.08.06-.04.09-.09.12-.16.03-.05.06-.1.07-.16-.07-.11-.14-.24-.2-.36-.02.01-.04.02-.07.03-.11.06-.21.11-.32.17-.04.02-.09.04-.13.07-.02.01-.04.04-.07.04,0-.03,0-.06,0-.09,0-.03-.01-.06-.02-.1-.02-.09-.03-.18-.06-.28-.04-.11-.06-.23-.11-.33-.27.1-.55.21-.81.2,0,0-.54-.35-.66-.41,0,.19-.21.41-.2.56-.05,0-.08.02-.1.02-.3-.11-.64-.29-.56.31,0,.03-.02.06-.04.09.13.25.35.51.47.74.11.2.21.38.25.6.06.41-.11,1.36.26,1.95Z"/>
    <path class="cls-1" d="M24.01,76.16c-.11.14-.86,1.27-.96,1.43-.02.03-.04.06-.05.09,0,0,0,0,0,0,.03.02.07.04.1.06.13-.16.27-.31.43-.44.13-.11.28-.21.43-.29.07-.04.14-.07.21-.09.08-.02.16-.05.24-.07,0,0,.01,0,.02,0h0c.29-.1.6-.22.84-.35.42-.23.71-.64.98-1.04.46-.67.93-1.36,1.15-2.15.04-.15.07-.3.13-.45-.09.04-.36.07-.61.08-.04.15-.09.39-.21.51,0-.06-.05-.1-.08-.14-.04-.06-.09-.12-.13-.18-.03-.05-.05-.09-.08-.14-.01,0-.02,0-.03,0-.18.04-.38.08-.55.12-.07-.07-.23-.24-.4-.44-.03.03-.06.06-.08.08-.09.08-.19.15-.28.23-.04.03-.07.06-.09.1-.03-.03-.04-.07-.06-.1-.04-.07-.07-.09-.13-.14-.05-.04-.08-.08-.14-.11-.04-.02-.09-.03-.12-.06.03-.02.05-.05.08-.08.04-.05.06-.1.09-.16.06-.12.12-.26.18-.38-.14-.14-.26-.24-.32-.24-.04.03-.07.05-.11.08-.1.07-.28.29-.44.43-.26.62-.48,1.7-.36,2.06.12.36.48.56.55.94.04.2.03.48-.08.65-.04.06-.08.11-.13.16Z"/>
    <path class="cls-1" d="M21.16,79.27c.31-.78.7-1.56,1.2-2.49.1-.18.7-.98.73-1.18.13-.72-.54-1.38-.48-2.1.01-.17.2-.76.4-1.22-.03.03-.07.06-.1.08-.21-.15-.42-.43-.64-.67l-.31.19c.02.14.07.27.09.41.03.17.06.34.09.52-.04.03-.14,0-.19-.01-.09-.02-.17-.03-.26-.05-.08-.02-.17-.03-.25-.05-.04,0-.07-.03-.11-.02-.02.05,0,.13,0,.19,0,.09,0,.18,0,.27,0,.09,0,.17,0,.26,0,.05,0,.11,0,.17,0,.03.02.06.02.09-.04.01-.08-.03-.11-.04-.03-.01-.05-.02-.08-.03-.06-.03-.12-.07-.18-.1-.08-.04-.17-.06-.25-.1-.06-.02-.08-.01-.14,0-.06.01-.11.02-.17.04-.02,0-.04.01-.06.02-.03,0-.06.01-.09.02-.08.02-.18.05-.23.11-.03.03-.08.11-.12.11-.02-.07-.03-.15-.04-.22-.02-.1-.04-.2-.05-.3,0-.07-.02-.13-.03-.2-.23-.08-.45-.16-.63-.22-.06-.02-.26.05-.52.14.03.08.07.15.11.22-.1.05-.16.17-.21.27-.02.04-.03.1-.04.14,0,.05.03.17-.02.21-.03-.02-.07-.05-.1-.07.01.43-.11.97-.12,1.06-.06.34-.11.68-.11,1.03,0,.91.42,1.76,1,2.48.26.04.51.09.76.2.31.14.62.25.89.5.04.04.21.21.36.36Z"/>
    <path class="cls-1" d="M41.57,63.44c-.23-1.16-.39-2.34-.75-3.46-.89-2.79-2.39-4.98-4.65-6.4-2.09-1.32-4.65-1.65-7.06-1.07-2.73.65-5.46.96-8.19.96-2.73,0-5.46-.3-8.19-.96-2.41-.58-4.97-.25-7.06,1.07-2.25,1.42-3.75,3.61-4.65,6.4-.36,1.12-.51,2.3-.75,3.46-.01.5-.03,1.29-.05,1.79.11.73.22,1.47.33,2.2.69,4.32,2.6,8.3,3.63,12.53.91,3.74.98,7.8,1.22,11.64.3,4.7,3.54,6.15,5.91,6.15,1.17,0,1.68-.29,1.91-1.45.03-.15.06-.31.08-.47.55-4.19,1.27-10.7,5.69-12.14.01-.07.02-.14.04-.21.07-.97.09-1.95.06-2.92,0-.23-.02-.47-.16-.66-.1-.14-.25-.22-.4-.3-.5-.26-1.04-.45-1.53-.74-.78-.47-1.42-.98-2.35-1.37-.39-.16-.7-.18-1.05-.42-.48-.33-.51-1.03-.48-1.61.03-.42-.12-.7-.27-1.09-.07.07-.14.14-.2.22,0,.01-.02.05-.04.05-.02,0-.01-.01-.02-.01-.02,0-.03,0-.05,0-.04-.01-.08-.03-.11-.05-.04-.02-.09-.04-.14-.06-.02-.01-.05-.02-.08-.03-.07.09-.12.16-.12.21-.04-.04-.09-.07-.16-.09-.13-.04-.23-.07-.31-.1-.09.02-.18.04-.27.06-.1.02-.21,0-.31.03-.06.01-.14.01-.19.05,0,.06.09.12.13.16.05.05.13.08.16.14-.07.09-.09.23-.12.33-.01.04-.03.15-.06.18-.03.03-.08,0-.11,0-.02,0-.04,0-.07,0-.03,0-.05-.02-.09-.03-.1-.02-.19-.05-.29-.06-.04,0-.07-.01-.11-.02-.03.14-.06.25-.07.29-.18.1-1.16.12-1.5.01-.05.06-.15.16-.27.29-.13-.12-.24-.21-.38-.33-.2.34-.46.44-.8.19-.04-.03-.13.01-.2.02-.38.06-.12-1.05.07-1.4-.17.08-.28.13-.42.2,0-.09-.02-.17,0-.23.09-.34-.09-.61-.44-.6-.09,0-.19.09-.25.17-.09.11-.14.25-.21.37-.14-.1-.29-.18-.41-.29-.07-.06-.1-.15-.15-.23q.41-.46,0-.75c.11-.16.3-.31.29-.47,0-.14-.21-.28-.34-.44.08-.39.18-.86.26-1.32.01-.07-.01-.2-.06-.21-.07-.03-.17,0-.26.02-.12.02-.23.03-.35.05,0-.09.02-.19.02-.28,0-.07-.03-.13-.04-.19,0-.12-.06-.3,0-.36.09-.09.26-.13.4-.13.13,0,.26.07.4.12.18-.3,0-.49-.16-.66-.15-.15-.33-.27-.48-.41-.3-.29-.28-.53.04-.8.3-.26.3-.31-.03-.53-.02-.01-.04-.02-.05-.03.05-.13.09-.25.12-.38.21-.03.42-.05.6-.13.17-.08.73-.82.78-1,.12-.02,1.09.66,1.21.48.1-.14.42-.75.51-.98-.06.15.04-.06.06-.11,0,0,0,0,0-.01.01,0,.02.01.03.02.14.1.33.11.51.17.02-.14.04-.28.06-.43.02.01.07.03.09.06.23.29.5.3.62-.05.1-.28.08-.61.1-.93,0-.13-.03-.27-.06-.43.45.08.9.16,1.35.19.06.09.14.16.2.16.16,0,.32-.12.55-.22,0,.09.02.21,0,.32-.06.22-.04.45.19.48.13.02.38-.16.43-.3.15-.41.23-.85.35-1.32-.12,0-.19.02-.23,0-.08-.03-.14-.09-.21-.14.05-.07.09-.17.15-.21.21-.11.6-.96.67-1.07.14-.24-.74-1.24-.99-1.35.41-.13.74-.23,1.08-.34-.15-.38-.5-.29-.78-.38,0-.39.28-.34.52-.33.12-.52.19-.55.74-.36.35-.41.52-.38.88.17q.22.34.5.28c.06.09.12.19.2.27.18.18.39.21.6.04.22-.18.14-.34-.01-.54-.11-.14-.17-.34-.2-.52-.01-.08.11-.23.19-.25.07-.02.18.09.27.15.04.03.07.09.13.16.07-.14.1-.27.17-.36.06-.08.21-.18.23-.16.26.19.42,0,.62-.1.17-.07.36-.1.55-.1.28,0,.49.09.48.45,0,.24.09.49.13.74.05,0,.1.02.15.02.07-.2.18-.4.21-.62.04-.27,0-.54.01-.81.01-.29.09-.56.43-.59.32-.02.4.25.46.49.07.28.11.58.18.86.05.2.12.4.39.34.26-.05.23-.23.19-.44-.08-.45.19-.7.59-.49.29.15.54.43.74.7.26.35.58.55,1.09.72-.05-.42-.1-.74-.14-1.1.63-.03,1.24.02,1.78.38.32.22.32.54.23.95.28-.09.56-.18.84-.28.04-.31.1-.66.12-.76.02-.09.04-.07.13-.07.1,0,.2,0,.3,0,.17,0,.17,0,.34,0,.18,0,.45-.04.63,0,.02.09-.05.2-.05.31,0,.14,0,.28,0,.42.03.02.06.05.09.08.1.09.28.27.5.47.11-.02.22-.04.33-.06.12-.02.25-.05.37-.07.1-.02.23-.09.34-.09.01.12-.11.25-.15.36-.06.16-.12.33-.16.5.19.15.35.24.41.22.18-.07.32-.08.4.17.19.57.3.64.89.43.7-.25,1.16.16,1.6.87-.17,0-.3,0-.44,0-.21,0-.39.02-.37.29.02.25.12.44.41.41.17-.02.35-.05.54-.08.14.34,0,.96.71.73.29.44.36.44.74.13.19-.15.34-.44.65-.23.23.15.29.56.15.91q-.15.37.3.51c-.18.27-.34.54-.51.79-.17.25-.31.5-.07.76.06.07.94.08,1.02.07,0,.03,0,.07,0,.09,0,.23-.11.32-.19.52-.02.06-.04.12-.05.17.06,0,.1-.01.16-.06.08-.06.16-.1.25-.15.1-.06.19-.12.3-.15.12-.03.14.02.23.11.06.06.14.11.17.19.03.08.02.18.02.26,0,.16,0,.31.03.47.02.09.03.18.05.27.12,0,.19.23.26.31.12.13.29.35.27.54-.03.24-.36.37-.38.61,0,.08-.02.21.02.29.03.06.09.1.13.15.03.05.06.11.1.17.06.08.12.16.18.23.08.1.18.18.11.3-.08.14-.17.29-.26.44-.06.1-.14.18-.19.28-.02.03-.06.11-.06.14,0,.07.08.1.14.14.09.06.18.15.28.2.07.03.1.02.12.1.03.09-.04.22-.05.32,0,.13.07.34-.09.37-.04,0-.09-.01-.13,0-.05,0-.09.03-.13.04-.24.06-.46.08-.6.3-.06.1-.03.29-.03.4,0,.09-.02.22,0,.31.02.07.03.04.1.05.05,0,.1.03.15.04.08.01.21-.04.25.06-.15.09-.25.24-.38.35-.09.08-.14.16-.2.26-.05.09-.08.16-.11.27-.02.09-.08.17-.11.26-.02.07-.03.13-.07.18-.04.04-.06.06-.12.07-.11.01-.23.02-.34.04-.11.02-.37.02-.46.08-.07.05-.08.2-.08.28,0,.18-.01.37-.04.54-.19.02-.45-.23-.58-.32-.2-.13-.41-.26-.62-.37-.09-.04-.13,0-.2.08-.05.05-.1.11-.14.16-.08.1-.12.23-.17.34-.03.07-.07.14-.11.21-.02.03-.05.12-.07.14-.09.07-.35-.14-.44-.19-.12-.06-.24-.11-.36-.18,0-.15.07-.29.07-.45,0-.1.01-.2,0-.3-.02-.1-.02-.19-.03-.29,0-.05-.02-.14-.05-.18-.05-.05-.16-.03-.22-.04-.07,0-.12-.03-.19-.04-.08-.02-.15.01-.22.03-.12.03-.25.02-.37.05-.08.02-.2.07-.28.06-.14-.02-.06-.29-.09-.4-.06-.29-.23-.52-.37-.78-.02-.04-.05-.08-.07-.12-.01.01-.02.03-.04.04-.14.22-.31.46-.53.61-.06-.13-.11-.26-.15-.4,0-.03-.02-.06-.04-.09,0-.01,0-.03,0-.04-.07-.27-.15-.46-.28-.59-.09.38-.18.76-.32,1.12-.34.9-.85,1.73-1.35,2.55-.18.29-.25.33-.51.55-.23.19-.5.32-.76.46-.52.28-1.03.52-1.46.93-.15.14-.38.68-.48.86-.19.32-.25.7-.29,1.08-.12,1.05-.15,2.31-.05,3.34,4.06,1.69,4.76,7.92,5.3,11.99.02.16.05.32.08.47.24,1.15.74,1.45,1.91,1.45,2.37,0,5.61-1.45,5.91-6.15.24-3.84.31-7.9,1.22-11.64,1.03-4.23,2.94-8.21,3.63-12.53.12-.73.22-1.47.33-2.2-.01-.5-.03-1.29-.05-1.79Z"/>
  </g>
  <g>
    <path class="cls-1" d="M59.05,60.15c-.61-.63-1.36-1.12-2.21-1.46-.85-.33-1.8-.5-2.82-.5h-5.39v14.57h5.39c1.02,0,1.97-.17,2.82-.5.85-.34,1.6-.83,2.21-1.46.61-.63,1.09-1.41,1.43-2.3.33-.89.5-1.91.5-3.02s-.17-2.12-.5-3.01c-.34-.9-.82-1.67-1.43-2.3ZM54.02,71.42h-3.85v-11.89h3.85c.8,0,1.55.13,2.21.4.66.26,1.23.65,1.7,1.15.47.5.84,1.13,1.1,1.86.26.74.39,1.59.39,2.54s-.13,1.81-.39,2.55c-.26.73-.63,1.36-1.1,1.86-.47.5-1.04.89-1.7,1.15-.66.26-1.4.4-2.21.4Z"/>
    <path class="cls-1" d="M70.62,63.41c-.37-.39-.82-.7-1.33-.9-.51-.2-1.06-.31-1.65-.31-.73,0-1.4.13-1.99.39-.58.26-1.09.62-1.49,1.08-.4.46-.71,1.01-.92,1.64-.21.62-.32,1.31-.32,2.04,0,.86.11,1.65.34,2.32.22.68.55,1.27.97,1.74.42.48.93.85,1.52,1.09.59.25,1.24.37,1.95.37.39,0,.78-.04,1.16-.11.38-.08.74-.18,1.07-.31.34-.13.65-.29.92-.47.28-.19.52-.39.69-.61l.13-.16-.38-.47c-.09-.13-.24-.2-.4-.2-.13,0-.27.06-.47.22-.14.1-.32.22-.56.35-.23.13-.52.24-.87.35-.34.1-.75.15-1.22.15-.52,0-.99-.09-1.41-.27-.41-.17-.77-.44-1.06-.79-.29-.35-.53-.8-.69-1.33-.16-.52-.24-1.13-.25-1.81h6.93c.22,0,.34-.1.4-.18.08-.1.11-.24.11-.45,0-.72-.11-1.38-.32-1.94-.21-.57-.51-1.05-.88-1.44ZM64.46,66.3c.06-.38.16-.73.3-1.04.17-.39.39-.72.66-.99.27-.27.59-.48.96-.63.37-.15.8-.22,1.28-.22.41,0,.8.07,1.14.21.34.14.63.35.88.61.25.26.44.59.58.98.11.32.18.69.2,1.08h-5.99Z"/>
    <path class="cls-1" d="M81.69,63.3c-.3-.35-.68-.63-1.13-.82-.44-.18-.96-.28-1.53-.28-.78,0-1.49.19-2.13.55-.45.26-.86.58-1.24.96l-.05-.86v-.03c-.05-.29-.25-.46-.54-.46h-.78v10.4h1.47v-7.6c.4-.52.86-.93,1.37-1.23.52-.3,1.08-.46,1.67-.46.79,0,1.36.23,1.74.69.38.48.58,1.16.58,2.02v6.57h1.47v-6.57c0-.6-.07-1.15-.22-1.62-.15-.49-.37-.91-.66-1.26Z"/>
    <path class="cls-1" d="M90.54,71.16c-.13-.16-.27-.2-.36-.2-.15,0-.28.1-.36.17-.07.06-.16.13-.28.21-.11.07-.25.14-.4.2-.14.06-.32.09-.52.09-.16,0-.31-.02-.45-.07-.13-.05-.24-.12-.34-.22-.1-.1-.17-.23-.23-.39-.06-.17-.09-.37-.09-.61v-6.45h3.12v-1.22h-3.12v-3.77h-.7c-.19,0-.3.09-.36.16-.07.08-.11.17-.14.27v.02s-.23,3.33-.23,3.33l-1.7.12v.61c0,.19.09.3.16.36.09.08.21.12.35.12h1.16v6.5c0,.84.21,1.48.64,1.9.42.42,1.01.63,1.75.63.45,0,.89-.09,1.31-.27.42-.18.77-.43,1.05-.73l.13-.14-.36-.58-.02-.03Z"/>
    <path class="cls-1" d="M98.8,63.26c-.29-.34-.65-.61-1.09-.8-.43-.18-.93-.27-1.49-.27-.76,0-1.44.14-2.05.42-.59.28-1.17.69-1.7,1.22l-.14.14.27.46h0c.05.09.11.16.19.21.09.07.2.1.33.1.17,0,.34-.09.54-.27.14-.12.32-.26.54-.42.21-.15.48-.29.8-.41.3-.12.68-.18,1.12-.18.7,0,1.21.21,1.55.64.35.44.53,1.1.53,1.95v.78c-1.02.03-1.92.13-2.67.28-.82.16-1.5.38-2.03.66-.55.28-.96.63-1.22,1.02-.27.4-.4.84-.4,1.3s.08.91.25,1.27c.16.35.39.65.67.88.27.23.59.4.94.5.34.11.7.16,1.06.16.42,0,.82-.04,1.17-.13.36-.08.69-.2,1-.36.31-.15.6-.34.88-.56.15-.12.3-.24.45-.38l.08.76v.03c.08.3.31.47.62.47h.63v-6.69c0-.57-.07-1.1-.21-1.57-.14-.48-.36-.89-.64-1.23ZM96.03,71.6c-.3.08-.63.12-.99.12-.23,0-.46-.03-.67-.1-.2-.06-.38-.16-.54-.29-.15-.13-.28-.3-.37-.51-.09-.21-.14-.46-.14-.75s.09-.55.26-.78c.18-.24.48-.45.88-.63.42-.19.96-.34,1.62-.45.6-.1,1.31-.17,2.13-.21v2.21c-.2.21-.41.4-.62.58-.22.19-.47.36-.72.5-.26.14-.54.25-.84.32Z"/>
    <rect class="cls-1" x="102.78" y="57.79" width="1.47" height="14.97"/>
    <path class="cls-1" d="M121.06,66.68c0,.13.05.25.16.35.1.09.22.14.36.14h2.43v3.38c-.26.15-.52.28-.77.4-.29.14-.59.25-.9.34-.31.09-.64.16-.98.22-.34.05-.72.08-1.12.08-.92,0-1.75-.14-2.48-.42-.72-.28-1.35-.68-1.85-1.2-.5-.52-.9-1.16-1.16-1.91-.27-.76-.41-1.62-.41-2.58s.14-1.8.41-2.55c.27-.74.65-1.38,1.15-1.9.49-.51,1.1-.91,1.8-1.19.7-.28,1.51-.42,2.38-.42.66,0,1.23.06,1.69.18.46.12.85.26,1.16.41.31.15.55.29.72.43.2.16.36.26.48.31.3.14.58.06.74-.21l.39-.62-.17-.15c-.32-.28-.66-.53-1.01-.75-.35-.22-.73-.4-1.14-.55-.4-.15-.85-.26-1.31-.34-.47-.07-.98-.11-1.53-.11-1.11,0-2.13.18-3.02.53-.9.35-1.67.86-2.31,1.51-.64.65-1.13,1.44-1.47,2.36-.34.91-.51,1.93-.51,3.04s.17,2.14.52,3.05c.35.92.85,1.71,1.5,2.36.65.65,1.44,1.16,2.36,1.51.91.35,1.95.53,3.09.53,1.02,0,1.95-.14,2.76-.41.81-.27,1.59-.67,2.31-1.18l.11-.08v-5.39h-4.39v.81Z"/>
    <path class="cls-1" d="M134.29,63.26c-.29-.34-.65-.61-1.09-.8-.43-.18-.93-.27-1.49-.27-.76,0-1.44.14-2.05.42-.59.28-1.17.69-1.7,1.22l-.14.14.27.46h0c.05.09.11.16.19.21.09.07.2.1.33.1.17,0,.34-.09.54-.27.14-.12.32-.26.54-.42.21-.15.48-.29.8-.41.3-.12.68-.18,1.12-.18.7,0,1.21.21,1.55.64.35.44.53,1.1.53,1.95v.78c-1.02.03-1.92.13-2.67.28-.82.16-1.5.38-2.03.66-.55.28-.96.63-1.22,1.02-.27.4-.4.84-.4,1.3s.08.91.25,1.27c.16.35.39.65.67.88.27.23.59.4.94.5.34.11.7.16,1.06.16.42,0,.82-.04,1.17-.13.36-.08.69-.2,1-.36.31-.15.6-.34.88-.56.15-.12.3-.24.45-.38l.08.76v.03c.08.3.31.47.62.47h.63v-6.69c0-.57-.07-1.1-.21-1.57-.14-.48-.36-.89-.64-1.23ZM131.52,71.6c-.3.08-.63.12-.99.12-.23,0-.46-.03-.67-.1-.2-.06-.38-.16-.54-.29-.15-.13-.28-.3-.37-.51-.09-.21-.14-.46-.14-.75s.09-.55.26-.78c.18-.24.48-.45.88-.63.42-.19.96-.34,1.62-.45.6-.1,1.31-.17,2.13-.21v2.21c-.2.21-.41.4-.62.58-.22.19-.47.36-.72.5-.26.14-.54.25-.84.32Z"/>
    <path class="cls-1" d="M145.9,63.57c-.35-.44-.79-.78-1.29-1.02-.5-.23-1.08-.35-1.71-.35-.8,0-1.52.18-2.14.54-.41.24-.78.54-1.12.89v-5.84h-1.47v14.97h.83c.29,0,.49-.18.52-.47l.03-.56c.28.3.59.55.93.73.53.29,1.17.43,1.92.43s1.37-.14,1.93-.41c.56-.27,1.05-.66,1.44-1.16.39-.49.68-1.09.88-1.78.2-.68.3-1.44.3-2.26s-.09-1.49-.27-2.11c-.18-.63-.45-1.17-.8-1.6ZM139.65,65.21c.38-.54.82-.97,1.29-1.28.48-.31,1.05-.47,1.7-.47.91,0,1.59.31,2.08.93.5.64.76,1.62.76,2.92,0,.68-.07,1.29-.21,1.83-.14.53-.34.98-.62,1.35-.27.36-.61.64-1.01.83-.4.19-.89.29-1.43.29s-1.02-.11-1.44-.32c-.4-.2-.78-.55-1.12-1.05v-5.05Z"/>
    <path class="cls-1" d="M154.43,62.25c-.21-.04-.43-.06-.65-.06-.41,0-.8.06-1.14.19-.34.13-.66.31-.93.55-.27.23-.52.52-.73.86-.03.04-.05.09-.08.14l-.03-1.01v-.02c-.02-.17-.08-.3-.16-.39-.1-.1-.24-.14-.42-.14h-.76v10.4h1.47v-6.61c.14-.41.29-.78.45-1.1.16-.31.35-.58.57-.79.21-.21.45-.36.71-.47.26-.1.57-.16.92-.16.24,0,.43.02.57.06.19.05.33.08.43.08.21,0,.37-.13.43-.34v-.02s.11-.84.11-.84l-.14-.09c-.18-.11-.39-.18-.61-.23Z"/>
    <rect class="cls-1" x="157.05" y="62.36" width="1.46" height="10.4"/>
    <path class="cls-1" d="M158.57,58.4c-.1-.1-.22-.18-.36-.24-.14-.06-.29-.09-.44-.09s-.3.03-.44.09c-.13.06-.26.14-.36.24-.1.1-.18.23-.24.36-.06.14-.09.29-.09.44s.03.3.09.44c.06.13.14.25.24.35.1.1.22.18.36.24.14.06.29.09.44.09s.3-.03.44-.09c.13-.06.26-.14.36-.24.1-.1.18-.22.24-.34.07-.14.1-.29.1-.44s-.03-.31-.1-.45c-.06-.14-.15-.26-.25-.36Z"/>
    <path class="cls-1" d="M168.86,63.41c-.37-.39-.82-.7-1.33-.9-.51-.2-1.06-.31-1.65-.31-.73,0-1.4.13-1.99.39-.58.26-1.09.62-1.49,1.08-.4.46-.71,1.01-.92,1.64-.21.62-.32,1.31-.32,2.04,0,.86.11,1.65.34,2.32.23.68.55,1.27.97,1.74.42.48.93.85,1.52,1.09.59.25,1.24.37,1.95.37.39,0,.78-.04,1.16-.11.38-.08.74-.18,1.07-.31.34-.13.65-.29.92-.47.28-.19.52-.39.69-.61l.13-.16-.38-.47c-.09-.13-.24-.2-.4-.2-.13,0-.27.06-.47.22-.14.1-.32.22-.56.35-.23.13-.52.24-.87.35-.34.1-.75.15-1.22.15-.52,0-.99-.09-1.41-.27-.41-.17-.77-.44-1.06-.79-.29-.35-.53-.8-.69-1.33-.16-.52-.24-1.13-.25-1.81h6.93c.22,0,.34-.1.4-.18.08-.1.11-.24.11-.45,0-.72-.11-1.38-.32-1.94-.21-.57-.51-1.05-.88-1.44ZM162.7,66.3c.06-.38.16-.73.3-1.04.17-.39.39-.72.66-.99.27-.27.59-.48.96-.63.37-.15.8-.22,1.28-.22.41,0,.8.07,1.14.21.34.14.63.35.88.61.25.26.44.59.58.98.11.32.18.69.2,1.08h-5.99Z"/>
    <rect class="cls-1" x="172.61" y="57.79" width="1.47" height="14.97"/>
    <path class="cls-1" d="M183.43,63.26c-.29-.34-.65-.61-1.09-.8-.43-.18-.93-.27-1.49-.27-.76,0-1.44.14-2.05.42-.59.28-1.17.69-1.7,1.22l-.14.14.27.46h0c.05.09.11.16.19.21.09.07.2.1.33.1.17,0,.34-.09.54-.27.14-.12.32-.26.54-.42.21-.15.48-.29.8-.41.3-.12.68-.18,1.12-.18.7,0,1.21.21,1.55.64.35.44.53,1.1.53,1.95v.78c-1.02.03-1.92.13-2.67.28-.82.16-1.5.38-2.03.66-.55.28-.96.63-1.22,1.02-.27.4-.4.84-.4,1.3s.08.91.25,1.27c.16.35.39.65.67.88.27.23.59.4.94.5.34.11.7.16,1.06.16.42,0,.82-.04,1.17-.13.36-.08.69-.2,1-.36.31-.15.6-.34.88-.56.15-.12.3-.24.45-.38l.08.76v.03c.08.3.31.47.62.47h.63v-6.69c0-.57-.07-1.1-.21-1.57-.14-.48-.36-.89-.64-1.23ZM180.66,71.6c-.3.08-.63.12-.99.12-.23,0-.46-.03-.67-.1-.2-.06-.38-.16-.54-.29-.15-.13-.28-.3-.37-.51-.09-.21-.14-.46-.14-.75s.09-.55.26-.78c.18-.24.48-.45.88-.63.42-.19.96-.34,1.62-.45.6-.1,1.31-.17,2.13-.21v2.21c-.2.21-.41.4-.62.58-.22.19-.47.36-.72.5-.26.14-.54.25-.84.32Z"/>
    <path class="cls-1" d="M204.3,70.02c-.09-.09-.22-.14-.35-.14-.07,0-.14.02-.21.05-.05.02-.1.06-.14.09h-.01c-.27.26-.54.48-.81.66-.27.18-.56.34-.88.46-.31.13-.66.22-1.03.28-.38.06-.82.1-1.3.1-.76,0-1.47-.14-2.12-.41-.65-.27-1.22-.67-1.69-1.18-.48-.51-.86-1.15-1.13-1.9-.28-.75-.42-1.61-.42-2.57s.14-1.79.41-2.54c.27-.74.65-1.38,1.13-1.9.48-.51,1.06-.91,1.73-1.19.67-.28,1.42-.42,2.23-.42.63,0,1.18.07,1.63.21.45.14.84.3,1.14.46.3.17.54.32.71.46.24.19.4.28.55.28.2,0,.36-.08.46-.23l.44-.63-.17-.15c-.63-.56-1.34-1-2.1-1.31-.77-.31-1.66-.47-2.65-.47s-2,.18-2.86.54c-.86.36-1.62.88-2.23,1.53-.62.65-1.1,1.45-1.44,2.36-.34.91-.51,1.92-.51,3.01s.17,2.14.5,3.05c.33.92.81,1.71,1.41,2.36.6.65,1.34,1.16,2.18,1.51.84.35,1.77.53,2.78.53.6,0,1.15-.05,1.65-.15.5-.1.97-.24,1.39-.42.42-.18.82-.41,1.17-.66.35-.26.68-.55.98-.87l.16-.18-.56-.6h0Z"/>
    <path class="cls-1" d="M213.05,63.26c-.29-.34-.65-.61-1.09-.8-.43-.18-.93-.27-1.49-.27-.76,0-1.44.14-2.05.42-.59.28-1.17.69-1.7,1.22l-.14.14.27.46h0c.05.09.11.16.19.21.09.06.2.1.33.1.17,0,.34-.09.54-.27.14-.12.32-.26.54-.42.21-.15.48-.29.8-.41.3-.12.68-.18,1.12-.18.7,0,1.21.21,1.55.64.35.44.53,1.1.53,1.95v.78c-1.02.03-1.92.13-2.67.28-.82.16-1.5.38-2.03.66-.55.28-.96.63-1.22,1.02-.27.4-.4.84-.4,1.3s.08.91.25,1.27c.16.35.39.65.67.88.27.23.59.4.94.5.34.11.7.16,1.06.16.42,0,.82-.04,1.17-.13.36-.08.69-.2,1-.36.31-.15.6-.34.88-.56.15-.12.3-.24.45-.38l.08.76v.03c.08.3.31.47.62.47h.63v-6.69c0-.57-.07-1.1-.21-1.57-.14-.48-.36-.89-.64-1.23ZM210.29,71.6c-.3.08-.63.12-.99.12-.23,0-.46-.03-.67-.1-.2-.06-.38-.16-.54-.29-.15-.13-.28-.3-.37-.51-.09-.21-.14-.46-.14-.75s.09-.55.26-.78c.18-.24.48-.45.88-.63.42-.19.96-.34,1.62-.45.6-.1,1.31-.17,2.13-.21v2.21c-.2.21-.41.4-.62.58-.22.19-.47.36-.72.5-.26.14-.54.25-.84.32Z"/>
    <path class="cls-1" d="M222.37,67.68c-.27-.21-.59-.38-.94-.52-.33-.13-.68-.25-1.03-.36-.33-.1-.67-.21-1.01-.32-.31-.1-.59-.22-.83-.36-.22-.13-.41-.28-.54-.46-.12-.16-.18-.36-.18-.62,0-.21.05-.41.14-.61.1-.19.24-.37.41-.52.18-.15.41-.28.68-.37.27-.09.57-.14.89-.14.37,0,.69.04.94.11.26.08.48.16.65.26.18.1.32.18.42.26.16.12.3.17.43.17.19,0,.35-.09.45-.27l.31-.5-.15-.14c-.41-.38-.87-.66-1.36-.85-.49-.18-1.06-.27-1.69-.27-.53,0-1.02.08-1.45.23-.43.16-.81.37-1.11.63-.31.27-.55.58-.71.94-.17.36-.25.73-.25,1.12,0,.45.09.84.27,1.16.18.3.41.57.69.78.28.21.59.38.94.51.33.13.68.25,1.02.35.34.1.68.21,1,.32.31.1.59.22.83.36.23.13.41.3.55.49.13.18.19.4.19.67,0,.26-.05.52-.14.75-.09.23-.24.44-.42.61-.19.17-.42.31-.71.42-.29.11-.63.16-1.01.16-.41,0-.76-.05-1.03-.14-.28-.1-.52-.21-.71-.32-.19-.11-.34-.22-.46-.32-.17-.15-.33-.22-.48-.22-.12,0-.22.03-.31.08-.08.05-.14.12-.2.2l-.34.52.16.15c.42.37.89.68,1.42.91.53.24,1.17.35,1.9.35.58,0,1.11-.09,1.57-.25.46-.17.85-.4,1.17-.7.32-.3.57-.65.73-1.05.16-.4.25-.84.25-1.3s-.09-.82-.27-1.14c-.18-.31-.41-.57-.69-.78Z"/>
    <path class="cls-1" d="M230.85,71.16c-.13-.16-.27-.2-.36-.2-.15,0-.28.1-.36.17-.07.06-.16.13-.28.21-.11.07-.25.14-.4.2-.14.06-.32.09-.52.09-.16,0-.31-.02-.45-.07-.13-.05-.24-.12-.34-.22-.1-.1-.17-.23-.23-.39-.06-.17-.09-.37-.09-.61v-6.45h3.12v-1.22h-3.12v-3.77h-.7c-.19,0-.3.09-.36.16-.07.08-.11.17-.14.27v.02s-.23,3.33-.23,3.33l-1.7.12v.61c0,.19.09.3.16.36.09.08.21.12.35.12h1.16v6.5c0,.84.21,1.48.64,1.9.42.42,1.01.63,1.75.63.45,0,.89-.09,1.31-.27.42-.18.77-.43,1.05-.73l.13-.14-.36-.58-.02-.03Z"/>
    <path class="cls-1" d="M237.9,62.25c-.21-.04-.43-.06-.65-.06-.41,0-.8.06-1.14.19-.34.13-.66.31-.93.55-.27.23-.52.52-.73.86-.03.04-.05.09-.08.14l-.03-1.01v-.02c-.02-.17-.08-.3-.16-.39-.1-.1-.24-.14-.42-.14h-.76v10.4h1.47v-6.61c.14-.41.29-.78.45-1.1.16-.31.35-.58.57-.79.21-.21.45-.36.71-.47.26-.1.57-.16.92-.16.24,0,.43.02.57.06.19.05.33.08.43.08.21,0,.37-.13.43-.34v-.02s.11-.84.11-.84l-.14-.09c-.18-.11-.39-.18-.61-.23Z"/>
    <path class="cls-1" d="M248.46,65.37c-.21-.66-.52-1.23-.93-1.69-.41-.47-.92-.84-1.51-1.1-.59-.25-1.26-.38-2-.38s-1.41.13-2,.38c-.59.26-1.1.62-1.51,1.1-.41.47-.72,1.04-.94,1.69-.21.65-.32,1.38-.32,2.18s.11,1.53.32,2.18c.21.65.53,1.22.93,1.69.41.47.92.84,1.51,1.09.59.25,1.26.38,2,.38s1.41-.13,2-.38c.59-.25,1.1-.62,1.51-1.09.4-.47.72-1.04.93-1.69.21-.65.32-1.38.32-2.18s-.11-1.53-.32-2.18ZM244.02,71.63c-.55,0-1.03-.09-1.44-.28-.4-.18-.74-.45-1.01-.79-.27-.35-.48-.78-.62-1.28-.14-.51-.21-1.09-.21-1.72s.07-1.21.21-1.72c.14-.5.35-.93.62-1.29.27-.35.61-.62,1.01-.8.4-.19.89-.28,1.44-.28s1.03.1,1.44.28c.4.19.74.46,1.01.8.27.35.48.78.62,1.29.14.51.21,1.09.21,1.72s-.07,1.22-.21,1.73c-.14.5-.34.93-.62,1.28-.27.34-.61.61-1.01.79-.4.19-.89.28-1.44.28Z"/>
  </g>
  <rect class="cls-1" x="48.34" y="77.27" width="201.42" height=".28"/>
  <g>
    <path class="cls-1" d="M49.02,81.77h5.18v.92h-4.13v3.05h3.47v.9h-3.47v3.3h4.13v.92h-5.18v-9.08Z"/>
    <path class="cls-1" d="M55.45,89.87c.51.13,1.31.25,1.95.25.92,0,1.61-.27,1.61-1.03,0-.63-.49-.82-1.51-1.14-1.06-.34-2.16-.68-2.16-1.92,0-1.17.96-1.83,2.48-1.83.58,0,1.31.1,1.82.21l-.14.86c-.47-.1-1.18-.2-1.71-.2-.96,0-1.44.34-1.44.92,0,.68.68.8,1.69,1.13,1.21.39,1.96.79,1.96,1.92,0,1.28-.95,1.96-2.65,1.96-.71,0-1.44-.11-2.07-.27l.17-.86Z"/>
    <path class="cls-1" d="M61.81,85.16h-.95v-.72l.99-.06.07-1.95h.87v1.9h1.86v.82h-1.86v3.96c0,.68.16,1,.75,1,.28,0,.61-.07.99-.23l.27.79c-.37.17-.85.31-1.37.31-1.02,0-1.62-.52-1.62-1.82v-4.02Z"/>
    <path class="cls-1" d="M68.43,84.2c1.71,0,2.48,1.28,2.48,2.92,0,.31-.03.58-.06.83h-4.13c.07,1.31.55,2.17,1.92,2.17.68,0,1.31-.21,1.88-.48l.34.79c-.61.3-1.37.56-2.27.56-1.81,0-2.88-1.09-2.88-3.33s.99-3.47,2.72-3.47ZM69.94,87.16c-.01-1.06-.35-2.09-1.52-2.09-1.09,0-1.64.89-1.69,2.09h3.22ZM68.02,83.55l-.41-.39,1.47-1.99.73.69-1.79,1.69Z"/>
    <path class="cls-1" d="M72.86,85.16h-.95v-.72l.99-.06.07-1.95h.87v1.9h1.86v.82h-1.86v3.96c0,.68.16,1,.75,1,.28,0,.61-.07.99-.23l.27.79c-.37.17-.85.31-1.37.31-1.02,0-1.62-.52-1.62-1.82v-4.02Z"/>
    <path class="cls-1" d="M77.2,81.77h.99v1.24h-.99v-1.24ZM77.2,84.34h.99v6.52h-.99v-6.52Z"/>
    <path class="cls-1" d="M82.96,84.2c.56,0,1.23.08,1.75.21l-.14.85c-.45-.08-1.1-.18-1.61-.18-1.44,0-2,.78-2,2.51,0,1.47.41,2.54,1.93,2.54.56,0,1.23-.16,1.81-.39l.3.79c-.58.27-1.35.48-2.16.48-2,0-2.89-1.3-2.89-3.46,0-1.96.73-3.34,3.02-3.34Z"/>
    <path class="cls-1" d="M88.57,86.98c.42,0,.97.04,1.44.11v-.63c0-1.07-.59-1.38-1.51-1.38-.62,0-1.37.14-1.92.3l-.2-.82c.59-.17,1.4-.35,2.19-.35,1.37,0,2.43.54,2.43,2.16v4.5h-.78l-.1-.58c-.51.39-1.2.72-2.05.72-1.2,0-2.2-.66-2.2-2s1.07-2.02,2.69-2.02ZM88.23,90.18c.61,0,1.28-.24,1.78-.63v-1.71c-.48-.04-1.06-.08-1.42-.08-1,0-1.69.32-1.69,1.21,0,.8.55,1.21,1.34,1.21Z"/>
    <path class="cls-1" d="M97.6,86.15v-.07c-.83-.24-1.38-.85-1.38-1.99,0-1.65,1.14-2.45,3.06-2.45.8,0,1.68.14,2.38.3l-.16.89c-.59-.11-1.47-.27-2.23-.27-1.26,0-2,.41-2,1.58s.75,1.57,1.99,1.57h4.23v.85h-1.47c.16.56.24,1.18.24,1.69,0,2.02-1.35,2.76-3.17,2.76-1.99,0-3.1-.9-3.1-2.6,0-1.33.69-2.02,1.61-2.26ZM99.11,90.08c1.45,0,2.14-.58,2.14-1.89,0-.49-.1-1.04-.23-1.65h-1.81c-1.4,0-2.17.48-2.17,1.79s.73,1.75,2.06,1.75Z"/>
    <path class="cls-1" d="M108.21,81.83c.8-.1,1.76-.2,2.57-.2,1.96,0,3.43.59,3.43,2.68,0,1.58-.87,2.31-2.1,2.58.65,1.27,1.47,2.58,2.34,3.94v.03h-1.23c-.8-1.26-1.57-2.57-2.23-3.82-.73,0-1.21-.03-1.74-.08v3.91h-1.04v-9.03ZM110.71,86.16c1.45,0,2.44-.35,2.44-1.82s-.93-1.78-2.37-1.78c-.42,0-1,.03-1.52.07v3.46c.54.06,1.13.07,1.45.07Z"/>
    <path class="cls-1" d="M118.28,84.2c1.71,0,2.48,1.28,2.48,2.92,0,.31-.03.58-.06.83h-4.13c.07,1.31.55,2.17,1.92,2.17.68,0,1.31-.21,1.88-.48l.34.79c-.61.3-1.37.56-2.27.56-1.81,0-2.88-1.09-2.88-3.33s.99-3.47,2.72-3.47ZM119.79,87.16c-.01-1.06-.35-2.09-1.52-2.09-1.09,0-1.64.89-1.69,2.09h3.22Z"/>
    <path class="cls-1" d="M122.49,81.77h.99v3.12c.52-.35,1.21-.69,2.05-.69,1.27,0,2.09.71,2.09,2.14v4.51h-.99v-4.42c0-.97-.47-1.37-1.26-1.37-.71,0-1.41.32-1.89.65v5.13h-.99v-9.08Z"/>
    <path class="cls-1" d="M131.84,86.98c.42,0,.97.04,1.44.11v-.63c0-1.07-.59-1.38-1.51-1.38-.62,0-1.37.14-1.92.3l-.2-.82c.59-.17,1.4-.35,2.19-.35,1.37,0,2.43.54,2.43,2.16v4.5h-.78l-.1-.58c-.51.39-1.2.72-2.05.72-1.2,0-2.2-.66-2.2-2s1.07-2.02,2.69-2.02ZM131.5,90.18c.61,0,1.28-.24,1.78-.63v-1.71c-.48-.04-1.06-.08-1.42-.08-1,0-1.69.32-1.69,1.21,0,.8.55,1.21,1.34,1.21Z"/>
    <path class="cls-1" d="M136.36,81.77h.99v2.95c.51-.31,1.06-.52,1.78-.52,1.66,0,2.51,1.11,2.51,3.43s-.8,3.37-2.88,3.37c-.85,0-1.74-.18-2.4-.42v-8.8ZM138.75,90.17c1.47,0,1.86-.9,1.86-2.54,0-1.78-.47-2.57-1.66-2.57-.52,0-1.09.16-1.61.48v4.43c.45.11.96.2,1.41.2Z"/>
    <path class="cls-1" d="M143.48,81.77h.99v1.24h-.99v-1.24ZM143.48,84.34h.99v6.52h-.99v-6.52Z"/>
    <path class="cls-1" d="M146.64,81.77h.99v9.08h-.99v-9.08Z"/>
    <path class="cls-1" d="M149.8,81.77h.99v1.24h-.99v-1.24ZM149.8,84.34h.99v6.52h-.99v-6.52Z"/>
    <path class="cls-1" d="M153.19,85.16h-.95v-.72l.99-.06.07-1.95h.87v1.9h1.86v.82h-1.86v3.96c0,.68.16,1,.75,1,.28,0,.61-.07.99-.23l.27.79c-.37.17-.85.31-1.37.31-1.02,0-1.62-.52-1.62-1.82v-4.02Z"/>
    <path class="cls-1" d="M159.67,86.98c.42,0,.97.04,1.44.11v-.63c0-1.07-.59-1.38-1.51-1.38-.62,0-1.37.14-1.92.3l-.2-.82c.59-.17,1.4-.35,2.19-.35,1.37,0,2.43.54,2.43,2.16v4.5h-.78l-.1-.58c-.51.39-1.2.72-2.05.72-1.2,0-2.2-.66-2.2-2s1.07-2.02,2.69-2.02ZM159.34,90.18c.61,0,1.28-.24,1.78-.63v-1.71c-.48-.04-1.06-.08-1.42-.08-1,0-1.69.32-1.69,1.21,0,.8.55,1.21,1.34,1.21Z"/>
    <path class="cls-1" d="M166.78,84.2c.56,0,1.23.08,1.75.21l-.14.85c-.45-.08-1.1-.18-1.61-.18-1.44,0-2,.78-2,2.51,0,1.47.41,2.54,1.93,2.54.56,0,1.23-.16,1.81-.39l.3.79c-.58.27-1.35.48-2.16.48-2,0-2.89-1.3-2.89-3.46,0-1.96.73-3.34,3.02-3.34Z"/>
    <path class="cls-1" d="M170.25,81.77h.99v1.24h-.99v-1.24ZM170.25,84.34h.99v6.52h-.99v-6.52Z"/>
    <path class="cls-1" d="M175.87,84.2c2.1,0,2.92,1.38,2.92,3.4s-.82,3.4-2.92,3.4-2.91-1.38-2.91-3.4.82-3.4,2.91-3.4ZM175.87,90.12c1.48,0,1.9-1.07,1.9-2.52s-.42-2.52-1.9-2.52-1.89,1.07-1.89,2.52.41,2.52,1.89,2.52ZM175.49,83.55l-.41-.39,1.47-1.99.73.69-1.79,1.69Z"/>
    <path class="cls-1" d="M180.51,84.34h.76l.08.63c.55-.39,1.28-.78,2.2-.78,1.24,0,2.07.71,2.07,2.14v4.51h-.99v-4.42c0-.97-.47-1.37-1.26-1.37-.71,0-1.41.32-1.89.65v5.13h-.99v-6.52Z"/>
  </g>
</svg>