<?xml version="1.0" encoding="UTF-8"?>
<svg id="Capa_1" xmlns="http://www.w3.org/2000/svg" version="1.1" viewBox="0 0 510 185.6">
  <!-- Generator: Adobe Illustrator 30.6.0, SVG Export Plug-In . SVG Version: 2.1.4 Build 109)  -->
  <defs>
    <style>
      .st0, .st1 {
        fill: #fff;
      }

      .st1 {
        opacity: .5;
      }
    </style>
  </defs>
  <path class="st0" d="M248.1,90.5c0,1.9,1.1,5.4,2.4,6.7l10.5,3c.6.2,1.6,1.2,1.5,1.8,0,.7-1.7,1.5-2.6,1.5-13.3-.6-26.7-.5-40,0-.7,0-2.2-1-2.1-1.6.5-2.9,5.2-.7,10.8-4,2.1-1.3,3.5-4.8,3.5-7.5V14.4c0-10.7-11.2-7-14-10.1.9-.5,2.6-1.3,3.4-1.3l28.8-.3c9.7,0,19.1-.9,28.5,1,12.1,2.4,19.6,11.6,19.9,23.9.2,10.4-5.1,19.8-15.2,23.5-4,1.5-8.1,2.4-12.5,3.6l33.6,39.4c5.1,6,13.3,5.9,13.5,8.7,0,.5-1.5,1.1-2.1,1.1l-20.9-.4c-1.5,0-3.6-1-4.5-2.2l-32.9-40.9c-2.3-2.8-6.3-3.8-9.5-2.7v32.9ZM280,40.9c2.4-7.1,2.3-14.9,0-22.1-4.1-12-17-14.5-28.1-13.1-1.8.2-3.6,2.4-3.6,4.2v42.9c12.1,2,27.5.6,31.9-12Z"/>
  <path class="st0" d="M344.3,103.2c-2.4,0-5.9.4-7.5-.2s-.3-2.4.2-2.5c4.4-1.2,8.4-.3,11.2-3.1,1.6-1.6,2.7-5.1,2.7-7.7V13.8c0-5.2-4.4-8.5-9-8-2.1.2-4.3-.7-5.9-2,2.3-2.3,4.9-1.7,7.9-1.6,18.2.9,39.5-1.9,54.6,1.4,16.7,3.6,29.9,14.9,35.2,31.2,4,12.2,4.3,25.4.7,37.7-4.7,16.2-18.1,27.2-34.5,29.8-9.7,1.5-18.9,1.2-28.7.8-9-.3-17.5-.2-27,0ZM416.8,75.2c2.9-14.5,2.5-29.5-1.3-43.7-2.4-9-7.9-16.6-16-20.9-8.2-4.3-17-5.1-26.2-4.7-3.7.1-6.7,2.5-6.7,6.6v68.8c0,9.3,3.5,17.4,13.6,18.3,18,1.5,32.8-5.5,36.6-24.3Z"/>
  <path class="st0" d="M69,100.9c-15,8-32.3,6.7-46.1-2.4-2-1.3-3.3,2.9-5.6,4.4-.6.3-1.8-1.4-1.7-2,.9-8.7,1-17.1.3-25.8s1.2-2.1,1.9-1.9l5.6,12.9c3.5,8,9.7,13.4,18.4,15.2,7,1.5,14.7.9,20.5-3.5,5.9-4.5,7.9-11.8,6.9-19.2-2.6-20.2-30.6-18.7-44-33.4-10.2-11.1-8.7-30.4,3.8-38.7C37.3,1,48-1.2,57.8,1.5c4.3,1.2,7.9,3.8,12.3,5.4l4.2-5.3c.6-.7,2.5,1.6,2.5,2.5-.4,7-.3,13.3,0,20.4,0,1.5-1.1,3.6-2.6,3.2-2.6-6.3-5.1-12.9-9.7-17.6-8.8-8.7-25.5-7.4-31.8,1-5.2,6.9-3.6,18.7,4.3,22.7l29.6,14.7c11.2,5.6,17.7,17.6,16.7,29.9-.7,9.8-5.5,17.8-14.3,22.5Z"/>
  <path class="st0" d="M165.4,79.9l-5-13.1h-37.9c0,0-8.3,21.7-8.3,21.7-1.2,3.3,0,6.9,1.9,9.5l7.3,2.7c.5.2,1.5.9,1.9,1.3,2.6,2.7-14.7.9-18.2,1.1l-12.3.5c-.6,0-1.9-1-2.3-1.3s.7-2.1,1.5-2.1c10.6-.4,14.3-9.8,18.1-18.9L145.5,1.7c.3-.8,1.8-1.9,2.4-1.7s2.1,1.2,2.4,1.9l34.7,87.4c1.2,3,3.7,7,6.4,8.1l9.6,4c.5.7-1.3,2.2-2.3,2.2l-26.7-.4-12.8.5c-.6,0-1.9-1-2.2-1.4s.8-1.8,1.5-1.9l6.5-1.1c8.2-1.4,2.8-13.2.5-19.5ZM158.8,62.2l-16.7-42.9-17.9,43h34.6Z"/>
  <path class="st0" d="M480.5,103l-22.6.7c-.7,0-2.5-1.1-2.2-1.7,1.7-3.5,8.5-.2,13.2-4.9,1.8-1.8,3-5.3,3-8.1V15.1c0-4.2-2.8-7.3-6.4-8.1l-8.7-2.1c2.4-2.5,4.3-2,6.9-2l37.5.3c2.8,4.1-5.7.9-10.3,5-1.7,1.5-3.3,5.1-3.3,8.1v72.4c0,13.8,14.4,8.1,16.1,13.1.2.7-1.5,1.8-2.2,1.8l-20.8-.8Z"/>
  <path class="st0" d="M488.2,181.5c0,1-.3,2.1-.6,2.5s-2.2-.4-2.4-1.1l-5.3-18.5-.3,18.8c0,.9-3.1,1-3.1,0v-33.8c0-.8,1.8-1.7,2.1-1.3s1,1.2,1.1,1.6l5.2,19,.3-19.7c0-.8,2.9-.8,2.9,0v32.5Z"/>
  <path class="st0" d="M194.7,184c.2.6-1.6,1.9-2.1,1.5l-2-2c-2,.4-4.9.9-7-.2-6.2-3.3-2.1-15.7.3-21.2,0-2.7-2.7-12.6,3.3-12,2,.2,3.2,2.4,2.7,4.6l-1.9,7.5c-.1.5,0,2.7.5,2.7h2.2c3.3,3.4,3.2,9.9,2.6,14.1-.2,1.2,1,3.8,1.4,5.1ZM189.3,178.9l-3.7-11.5c-2.2,3.6-3.7,12.5,1.5,13.6s2.5-1.4,2.3-2.2Z"/>
  <path class="st0" d="M121.4,183.5c-1.1-3-2.2-8.5-5.2-11.3l-.3,11c0,.9-3.1,1.1-3.1.1v-34.8c2.8-.6,5.6-.2,7.7,1.6,4.2,3.6,5,15.8-1.7,19.9,3,3.9,4.8,8.8,5.5,13.3-.1.4-2.6.8-2.8.3ZM116,151.1v16.1c6.4-1.2,5.6-15.5,0-16.1Z"/>
  <path class="st0" d="M29.2,184.1c-2.6-.9-1.7-7.9-6.3-11.9l-.3,10.2c0,.7-1.2,1.8-1.8,1.7s-1.4-1.5-1.4-2.1v-33.6c3.1-.5,6,0,8,1.9,3.9,3.5,4.6,15.5-2,19.7,1.8,1.6,8.5,15.7,3.7,14.1ZM22.7,151.3v15.5c.6,0,2.6-.7,3-1.4,2.5-4.6,2.2-13.4-3-14.1Z"/>
  <path class="st0" d="M317.7,184.1c-2.4-.8-1.8-8.2-6.3-12.1l-.3,11.1c0,1-3.1,1.1-3.1.3v-34.9c3.3-.6,6.2,0,8.3,2.1,3.5,3.5,4.5,15.5-2.3,19.4,2.1,1.8,8.6,15.8,3.7,14.2ZM314.8,153.9c-.4-1.2-2.1-2.3-3.5-2.5v15.9c5.4-1.1,5-9.2,3.5-13.3Z"/>
  <path class="st0" d="M46.5,177.1c-.2-1.1-4.1-1-4.9-.4l-1.3,6.7c-.2.8-3.3.6-3.1-.4l5.1-32.9c0-.6.7-1.6,1-1.9s2.2.3,2.3,1l5.3,33.9c.1.8-3,.8-3.1,0l-1.2-6.2ZM46,173l-2.1-11-1.9,11h4Z"/>
  <path class="st0" d="M505.9,176.4h-5.2s-1.3,7.7-1.3,7.7l-3.1-.7,5.3-33.4c.1-.7,1-1.7,1.4-1.9.5-.2,1.8.8,2,1.7l5.1,32.8c0,.6-1.1,1.6-1.6,1.5-.5-.1-1.6-1.1-1.7-1.7l-.9-6ZM505,172.6l-2-11.8-1.7,11.5c-.1,1,3.7,1.3,3.6.3Z"/>
  <path class="st0" d="M464,176.4h-5.1s-1.2,7.6-1.2,7.6l-3.1-.4,5.1-33.4c0-.6.8-1.8,1.4-2s2,1,2.1,1.8l5.2,33.6-2.3.4c-.6,0-.9-1.4-1-2.1l-1-5.5ZM463.5,172.9l-2.1-11.2-2.1,11.3c1.4,0,2.9,0,4.2,0Z"/>
  <path class="st0" d="M412.6,176.6c-1.2-.1-3.8-.1-5.2,0l-1,6.2c-.1.7-1.4,1.5-2,1.4s-1.2-1.5-1.1-2.2l5-32.2c0-.6,1.2-1.6,1.7-1.7s1.5,1,1.7,2l5,32.6c.1.8-1.4,1.7-1.8,1.5s-1.3-1.3-1.4-1.9l-.8-5.7ZM412,172.9l-2.1-11.5-2,11.5h4.1Z"/>
  <path class="st0" d="M153.2,176.6c-1.2-.2-4-.3-5.1-.2l-1,6.3c0,.6-1.3,1.5-1.8,1.5s-1.4-1.6-1.3-2.2l4.9-31.8c.2-1.1,1.4-2.1,1.9-2s1.4,1.2,1.5,1.9l5.1,32.4c0,.6-.6,1.6-1,1.5s-1.9-.2-2-.6l-1.3-6.8ZM152.5,172.4l-1.7-11.6-2.2,11.9c.6.7,3.5.6,3.9-.4Z"/>
  <path class="st0" d="M348.6,176.4h-5.2s-1.1,6.7-1.1,6.7c-.2.9-3.3,1.1-3.2.2l5.1-33.3c.1-.7.9-1.8,1.5-1.9.6-.1,1.8,1,1.9,1.6l5.2,33.6c.1.8-3,.8-3.1,0l-1.1-6.8ZM348,172.6l-2.2-11-1.9,11.3c1,.5,3.2.4,4-.3Z"/>
  <path class="st0" d="M98.2,184.1c-6.6,1.1-6.5-13.3-6.5-17.6,0-4.3.2-18.3,6-18.3,6,0,6.2,13.7,6.2,18.3,0,5,0,16.7-5.6,17.6ZM99.7,178.9c1.5-8.6,1.4-17.4-.2-25.5s-1.2-2.3-1.7-2-1.6,1.4-1.7,2c-1,5.2-2.9,25.8,1.7,27.7.5.2,1.9-1.5,2-2.1Z"/>
  <path class="st0" d="M222.7,176.3l-.3,7.6h-2.9c0-.1,0-35.5,0-35.5,4.9-.8,8.8,2.1,10.4,6.6,2,6,2.2,19.1-7.2,21.2ZM222.6,151.2v21.8c7.1-.5,6.9-20.8,0-21.8Z"/>
  <path class="st0" d="M297.8,162.6l-5.4.5v17.6c0,0,7,.3,7,.3.9,0,.8,3,0,3h-10s0-35.6,0-35.6h9.8c.7-.1,1.1,2.4.6,2.6l-7.3.3v8.2c0,0,5.3.3,5.3.3v2.7Z"/>
  <path class="st0" d="M261.5,184l-11.5-.2,8.7-32.5c-2.4,0-5.3,0-6.8-.2s-.7-2.1-.4-2.9l11.4.3-8.7,32,6.2.5c.7,0,1.7.2,2.2.4s-.3,2.6-.9,2.6Z"/>
  <path class="st0" d="M281.5,183.9h-12.9s8.7-32.4,8.7-32.4l-6.6-.3c-.7,0-1.1-2.7-.4-2.7h11.1s-8.7,32.4-8.7,32.4h7.6c.2.1.6,1,1.2,3.1Z"/>
  <path class="st0" d="M81.9,151.2v30.8c0,.8-1,2.1-1.7,2.1s-1.7-1.3-1.7-2.1v-30.9s-3.3.1-3.3.1c-.6,0-1.2-1.2-1.3-2.9h12.6c.5,3.4-1.8,3-4.6,2.8Z"/>
  <path class="st0" d="M62.8,183.2c0,.8-3.2.9-3.2,0v-31.8c0,0-4.2-.4-4.2-.4-.7,0-.6-2.7.2-2.7h11c.8,0,.9,2.6.2,2.7l-4,.5v31.7Z"/>
  <path class="st0" d="M394.3,183.4c0,.7-2.9.5-3-.1v-31.8c0,0-4.2-.5-4.2-.5-.7,0-.5-2.7.3-2.7h10.9c.6,0,.9,2.6.2,2.6l-4.1.5v31.9Z"/>
  <path class="st0" d="M7.6,151.6v31.5c0,.8-2.6,1-3.1.7v-32.6c-.1,0-3.7,0-3.7,0-.7,0-.8-1.5-.7-2.8h11.3c.6-.1,1,2.2.7,2.5l-4.5.7Z"/>
  <rect class="st0" x="132.5" y="148.2" width="3.3" height="35.8"/>
  <rect class="st0" x="443.2" y="148.3" width="3.3" height="35.7"/>
  <path class="st0" d="M434,181c.8,0,2,.5,2.1,1.1,0,.5-.8,1.9-1.4,1.9h-9.7c0-.1,0-35.3,0-35.3.5-.5,3.2-.4,3.2.6v31.3c0,0,5.9.4,5.9.4Z"/>
  <path class="st0" d="M379.2,183.1c0,.8-2.5,1-3.1.6v-35c.6-.4,3.1-.3,3.1.5v33.9Z"/>
  <path class="st0" d="M331,183.1c0,.7-2.5.9-3.1.6v-34.7c0-.9,3.1-.9,3.1,0v34.2Z"/>
  <rect class="st0" x="239" y="148.2" width="3.2" height="35.8"/>
  <rect class="st1" x="331.5" y="122.1" width="178.5" height="12.6"/>
  <rect class="st0" x="159.6" y="122" width="171.8" height="12.6"/>
  <rect class="st1" x="11.4" y="121.9" width="148.2" height="12.6"/>
</svg>