<?xml version="1.0" encoding="UTF-8"?>
<svg id="Capa_2" data-name="Capa 2" xmlns="http://www.w3.org/2000/svg" viewBox="0 0 275.75 297.88">
  <defs>
    <style>
      .cls-1 {
        fill: #fff;
      }
    </style>
  </defs>
  <g id="Layer_1" data-name="Layer 1">
    <g>
      <path class="cls-1" d="M227.72,114.3c-.44,22.92-4.67,35.37-22.73,50-2.5,2.03-13.43,9.69-15.96,10.08-1.04.16-1.88-.49-2.47-.41-.38.05-3.72,2.89-6.46,3.78-13.81,4.46-26.32,2.92-38.75-4.44-8.03-4.75-14.9-9.42-24.19-11.96-3.03-.83-10.98-1.58-12.87-3-1.09-.82-4.22-4.9-5.23-6.24-2.17-2.88-4.09-6-5.79-9.18,7.37-11.55,16.04-26.3,14.98-40.57-.33-4.45-2.68-8.99-2.9-13.42-.11-2.44,1.17-.38,2.42.24,1.81.89,4.13,1.17,5.73,2.2,3.85,2.47,5.96,9.58,10.49,10.67,1.52.37,2.9-.45,3.75,1.54,1.56,3.68-1.43,4.76-2.94,6.97-1.41,2.06-2.43,5.94-1.8,8.36.49,1.89,5,9.19,6.41,10.77,3.31,3.72,7.38,3.01,7.94,9.25.82,9.15-2.83,35.06,12.19,35.35,1.06.02,2.21-.37.88-1.27-1.6-1.09-1.82-.87-2.07-3.2-1.5-14.12,12.04-13.43,16.99-23.12.7-1.37.92-3.68,2.1-4.74,1.77-1.58,5.96-1.51,7.56-3.24,1.6-1.73,2.29-6.33,3.25-8.65,1.17-2.82,5.64-7.81,4.85-10.41-.81-2.68-14.76-4.15-17.95-5.87-3.31-1.78-3.27-6.22-7.17-7.37-1.74-.52-3.22-.21-5.08-1.09-1.96-.93-4.39-4.29-5.84-4.74-1.54-.47-3.33-.04-4.99-.3-3.6-.56-5.85-3.27-9.89-1.31-2.56,1.25-1.73,2.09-5.64,1.84-8.42-.53-1.86-6.66-4.5-8.39-.95-.63-3-.34-3.25-1.97-.31-2,2.5-3.11,2.23-4.38-.4-1.91-3.57.83-4.28,1-9.15,2.12-6.62-11.79,1.41-11.85,1.1,0,2.08.46,3.04.44,1.87-.04,4.59-1.95,5.91.35.58,1.01.83,6.12,2.7,4.96.5-.31.4-3.27.58-4.06,1.14-4.98,4.57-4.03,6.96-6.71,1.13-1.27,1.36-3.13,2.84-4.66,1.23-1.27,5.49-4.09,7.12-4.78,1.41-.6,5.95-1.29,6.58-2.24.9-1.36-2.28-1.38-2.36-2.43.07-1.13,3.67-3.99,4.33-3.31-.2,2.82-.32,3.25,2.44,3.96.56.15.83.73,1.32,0,.42-.74-1.14-5.32-1.54-6.4-1.48-4-4.69-7.31-3.78-11.7.11-.55,1.81-5.07,2.02-5.26.7-.64.75.21.98.56,1.61,2.48,2.27,5.89,4.96,7.8,2.24-1.99-2.78-8.47.97-9.6,5.47-1.65,12.27,4.64,16.59,7.05.8.45,11.63,4.84,9.56,6.97-.9.93-5.94-2.79-6.84-3.08-1.49-.46.03,2.98.42,3.54,2.19,3.18,6.74,2.33,7.65,3.14.13.11.36,1.58.96,2.36.98,1.27,3.42,1.59,3.56,3.09.17,1.76-2.16,2.1-2.21,2.62-.08,1,5.39,7.57,7.04,8.03-.34,2.52.52,4.93.46,7.41-.09,3.85-1.67,7.28-1.34,11.44.36,4.54,3.87,10.44,7.26,13.46,7.33,6.53,8.49-2.09,15.44-1.34,3.65.39,2.42,3.22,3.06,5.76,1.16,4.59,3.01,6.11,2.9,11.68Z"/>
      <path class="cls-1" d="M263.74,159.57c1.1,1.08.05,2.89-.4,4.02-3.88,9.81-18.94,31.89-27.73,37.5-5.01,3.2-14.82,5.92-20.85,8.69-5.6,2.57-11.58,5.64-17.04,8.52-9.98,5.28-20.83,13.67-32.01,15.16-14.37,1.92-28.05-3.12-42.26-3.91-21.01-1.16-41.96,2.19-61.98,8.16L6.89,197.12l.26-1.08,44.92-10.12c19.71-18.21,41.21-25.05,67.31-15.34,11.29,4.2,18.77,11.3,30.41,14.99,8.53,2.71,17.57,4.45,25.47,8.91,1.01.57,7.93,5.13,6.61,6.4l-1.32.44c2.55-.58,6.34,5.34,4.07,6.62-2.01,1.12-8.56-1.06-10.9-1.77-.82.55,1.72.45.65,1.33-.44.36-3.28-.42-4.17-.46-3.95-.15-7.29.15-11.28-.62-1.53-.29-2.94-1.03-4.36-1.37-.44-.11-1.44-.58-1.34.24,1.74.26,3.59,1.7,5.17,2.11,4.27,1.09,19.69,2.85,24.07,2.72,1.72-.05,4.74-.89,5.06-2.93.36-2.32-3.84-5.53-2.99-6.72,7.87-2.68,15.75-5.54,23.79-7.73,6.66-1.82,19.99-3.47,24.89-7.28,7-5.45,10.55-15.93,18.09-21.58,2.02-1.52,10.45-6.27,12.44-4.31Z"/>
      <path class="cls-1" d="M90.61,23.69c-.03,2.4-1.67,4.27-2.43,6.61-7.19,22.26,4.49,49.98,8.03,71.76,2.97,18.32-11.53,35.59-22.54,48.61-.35.41-1.82.58-2.01.41-.37-.33,2.62-8.29,2.96-9.6,4.65-18,5.5-35.69,1.23-53.88l-1.99-6.16c.3,15.23-.28,30.54-3.75,45.41-2.26,9.67-6.93,19.07-6.29,29.2l7.39,13.11c-2.36-.12-7.32,3.72-9.03,3.56-1.01-.1-3.6-4.73-4.27-5.9-8.73-15.38-20.03-43.84-21.08-61.35-2.04-34.05,21.86-70.12,53.77-81.76Z"/>
      <path class="cls-1" d="M173.93,185.46c-.92-1.19,8.89-3.18,9.59-3.4,28.47-9.2,50.22-37.87,53.38-67.39C243.97,48.71,170.69,3.73,114.9,39.82c-6.06,3.92-9.78,8.71-15.02,12.75-.44.34-.56.85-1.32.66-.58-.52-.6-13.39-.46-15.22.07-.87.27-2.66.57-3.39,1.35-3.28,18.6-11.22,22.58-12.69,92.26-33.97,169.06,75.98,105.81,151.21-9.66,11.49-12.08,10.98-25.69,15.31-2.73.87-12.12,4.77-13.99,4.77-1.52,0-4.78-3.65-6.53-4.74-1.97-1.23-4.67-2.35-6.92-3.01Z"/>
      <path class="cls-1" d="M262.91,138.68c-.37.31-4.65.42-5.69.7-2.08.57-3.47,3.16-5.71,2.88,1.79-7.46,3.72-14.56,4.4-22.26C262.47,46.03,185.18-12.13,116.2,17.76c-4.79,2.07-9.09,5.45-14.12,6.82-.49-.48,3.32-12.24,3.95-13.02,1.09-1.34,11.02-4.96,13.26-5.7,78.17-25.71,154.38,36.74,146.33,118.12-.17,1.75-2.12,14.24-2.7,14.71Z"/>
      <path class="cls-1" d="M48.08,157.25c-18.3-9.47-39.06-19.99-45.75-41.09-5.3-16.73.03-33.6.57-50.6.75-.09.98-.07,1.53.45.6.56,3.06,5.23,4.03,6.55,4.03,5.55,9.67,11.74,15.63,15.22,2.51,1.46,5.37,2.1,7.46,4v17.85c-.75.79-5.39-2.78-6.4-3.08-.62-.18-.78.04-.65.65,1.68,2.39,6.92,6.42,8.03,8.73,2.13,4.42,3.73,13.54,5.75,18.93,2.64,7.07,7.35,13.92,9.68,20.29.2.55.69,1.63.12,2.08Z"/>
      <path class="cls-1" d="M86.21,275.83c-.38,3.01-3.01,17.84.29,18.91,2.68.87,6.53-7.46,7.08-9.55.43-1.61.36-5.06,1.25-6.25.75-1,3.81-1.44,4.11-.21.25,1.02-2.91,11.16-.6,11.64,2.17.46,5.6-10.14,6.6-11.02.73-.64,3.5-.74,4-.02.8,1.14-.37,8.22-.24,10.38.06.93.39,2.88.66,3.76.18.57.08,1.06.87.87,1.41-.6,5.07-9.27,5.09-10.76,0-.44-1.19-.36-1.67-.81-1.29-1.23-1.51-5.86.08-6.97.65-.46,2.72-.69,3.28-.34.69.43.76,5.55.06,6.54,12.16-5.99,8.2,2.7,7.54,10.76.78,4.76,1.96,2.84,3.26-.18,1.54-3.58,1.58-8.05,3.14-10.96,1.5-2.81,4.12-4.25,7.35-3.48,1.09.26,1.51,1.2,2.06,1.41.64.24,2.16-.49,2.89.7.68,1.1-.56,4.04-.67,5.52-.21,2.8-.09,11.65,3.32,5.53s1.71-10.32,2.41-16.55c.41-3.65,2.02-10.8,5.85-12.23,2.97-1.11,6.08-.52,6.5,2.95.72,6.07-1.85,11.44-5.73,15.89-1.09,1.25-2.47,1.39-2.68,3.04-.3,2.3.87,11.17,4.19,10.85,3.65-.36,5.27-11.84,5.98-12.36.31-.23,1.14.2,1.21.64.14.94-2.37,8.39-3.03,9.66-4.15,8.04-11.95,2.69-12.07-4.58-1.39,7.23-9.17,10.25-9.48.89-.86.31-.86,1.53-1.66,2.21-1.93,1.63-5.98,1.31-6.93-1.33-1.29.62-1.8,8.83-6.85,7.31s-1.66-11.9-2.2-15.69c-.89.86-4.23,1.26-4.74,1.87s-2.34,7.21-3.24,8.88c-1.26,2.33-3.4,4.27-6.1,2.67-.65-.38-2.22-3.42-2.22-3.94v-8.6l-3.33,6.14c-2.68,3.78-6.45,4.92-7.9-.41-2.28,3.34-3.67,8.72-8.79,7.91-2.45-.39-4.14-3.38-4.22-5.7-.82.42-.97,1.77-1.57,2.61-3.02,4.24-7.52,1-7.25-3.5-1.74,2.34-3.6,3.4-6.63,2.45-1.31-.41-1.19-1.17-1.7-1.72-1.08-1.16-1.5,1.78-2.07,2.75-1.92,3.29-6.32,3.58-7.68-.15-2.49-6.84.13-18.83-.42-26.47-.03-.48.25-1.46-.65-1.09-2.56,1.05-5.27,14.17-5.82,17.11-.44,2.37-.82,9.35-1.56,10.78-.8,1.54-2.9,1.71-3.77,0-1.6-3.12-1.84-16.4-1.42-20.18.3-2.68,1.12-3.69,3.97-3.31v10.8l.88,2.86c.15-4.65,2.86-18.17,7.09-20.46,1.97-1.06,5.27-.35,5.67,2.2.31,1.96.09,5.35.05,7.48-.1,4.83-1.27,11.14-.91,15.87.56,7.38,3,5.48,4.94.06,1.53-4.26,1.19-10.77,7.64-10.91,2.68-.06,2.42,1.02,3.74,1.53.57.22,2.24-.2,3.05.31.65.75-2.39,10.16.03,13.36.65.86,1.81-.86,2.15-1.35,2.92-4.21,1.88-10.72,3.16-15.57l-5.95.88c-1.08-2.98,4.78-1.64,6.12-2.6.9-.64.14-6.86,5.12-5.34l-.44,5.29c2.98.15,7.03-.52,9.92,0,.76.14,1.23.47,1.1,1.32h-11.46ZM152.33,281.56c3.41-2.58,6.52-7.46,7-11.73.85-7.51-2.96-8.62-5.37-1.4-1.35,4.04-1.7,8.9-1.64,13.13ZM116.18,281.56c-.02-1.1.05-2.21,0-3.31-.02-.53.33-1.64-.44-1.53-.2.82-.48,1.52-.46,2.4,0,.45.22,2.4.89,2.44ZM70.19,279.45c-3.13.29-5.2,11.18-2.21,11.74s6.98-12.19,2.21-11.74ZM137.19,279.45c-2.98.27-5.47,9.95-2.22,11.79,2.42.41,7.18-12.24,2.22-11.79Z"/>
      <path class="cls-1" d="M264.73,275.83c-.63,3.16-2.85,17.26,0,18.76,2.6,1.37,5.69-5.77,6.55-7.58.43-.91,1.62-4.85,1.83-5.01.33-.25,1.18.26,1.27.7.33,1.54-4.49,10.64-5.89,12.09-3.97,4.12-9.33.81-9.06-4.42-1.52,1.33-2.22,3.56-4.38,4.21-4.79,1.42-7.53-1.6-8.4-5.97l-4.44,5.03c-9.16,3.31-5.3-8.01-5.91-12.96-.89,1.17-1.77,2.4-2.5,3.67-1.35,2.34-2.35,7.45-5.33,6.83-1.67-.35-1.12-1.77-2.52-1.68-.89,6.38-8.58,8.74-8.82.88-1.37-.12-1.82,1.78-2.95,2.11-2.81.83-4.45-.25-6.3-2.11-1.24,7.9-9.46,9.67-12.23,1.42-1.9-5.66-1.54-21.47,1.89-26.52,1.72-2.53,3.55-3.39,6.59-3.11,3.98.36,3.35,6.82,2.66,9.72-.75,3.15-2.8,6.35-4.86,8.8-2.4,2.85-3.61,1.57-3.3,5.94.3,4.25,3.11,13.37,7.12,5.81,2.62-4.94,1.44-15.92,10.18-14.3,1.57.29,2.19,1.66,2.34,1.66.79,0,2.21-.95,3.07.44.57.91-2.52,12.54.43,13.22,1.49.35,4.3-7.31,4.52-8.7.55-3.54-1.41-7.4,4.07-6.73l-.44,8.82c1.17.24.76-.3,1.09-.87,1.47-2.49,2.79-6.87,6.16-7.1,5.38-.37,3.04,4.45,2.89,7.75-.31,6.8,1.31,7.36,4.76,1.67,2.02-3.33,2.28-9.28,6.58-10.17,8.63-1.79,6.2,9.3-.76,8.72-.4,5.03,2.29,9.05,6.4,3.97,3.22-3.98,1.68-9.64,3.3-14.33.04-.93-8.15,2.26-5.98-.69.7-.95,5.94-.82,6.37-1.35s-.54-3.83,1.92-4.91c5.03-2.21,1.96,4.37,2.53,4.96h10.58s0,1.32,0,1.32h-11.02ZM198.62,281.56c4.66-3.42,8.14-10.23,7.04-16.08-.25-1.35-1.6-2.46-2.88-1.59-3.09,2.12-4.29,13.95-4.16,17.66ZM250.63,285.53c2.87-.32,5.49-4.27,2.86-6.61-1.51-.35-3.4,5.29-2.86,6.61ZM216.57,279.92c-3.68-3.43-7.5,10.64-3.58,11.32,2.18.38,5.75-9.29,3.58-11.32Z"/>
      <path class="cls-1" d="M259.82,157.64c-6.05,1.46-11.72,5.88-15.55,10.68-1.62,2.02-3.69,6.85-5.1,8.13-.59.54-.91.8-1.77.65,3.79-9.49,7.52-25.41,16.09-31.73,1.13-.84,6.56-3.65,7.52-2.23,1.15,1.71-1.2,11.89-1.18,14.51Z"/>
      <path class="cls-1" d="M180.54,282.44c.4.43-1,2.62,2.32,2.11,5.59-.86,8.95-12.84,7.05-17.43-1.17-2.81-4.27-2.12-6.13-.4-4.44,4.12-5.83,16.66-6.32,22.55-.25,3.03,1.43,7.95-3.09,7.27-.72-7.96-1.63-17.4-.9-25.37.24-2.64,1.45-4.2,4.24-2.87.43.59-.24,2.76-.28,3.76-.02.49-.27,1.68.46,1.56.64-5.62,6.43-12.76,12.68-10.24,4.85,1.96,3.53,12.12,1.61,15.93-2.02,4-7.25,7.34-11.82,6.63-4.16-.65-.82-4.56.19-3.5Z"/>
      <path class="cls-1" d="M125.44,41.76c-.06.07-1.18.22-1.74.68-5.77,4.72-15.65,11.83-18.31,18.72-1.14,2.94-1.13,6.33-2.49,8.97-.37.73-.67,1.77-1.7,1.6-.03-3.66-2.01-8.06-1.31-11.67.24-1.23,7.95-9.06,9.45-10.38,2.57-2.26,10.42-8.22,13.44-9.04,1.06-.29,3.53-.03,2.66,1.11Z"/>
      <path class="cls-1" d="M97.67,158.58c-.24.2-4.96.4-5.84.55-2.27.4-9.18,2.87-10.68,1.64-3.2-2.61.64-4.41,2.2-6.16,1.32-1.47,4.11-5.79,5.25-6.65.86-.65,1.83-.68,2.41.3l6.66,10.3Z"/>
      <path class="cls-1" d="M202.57,56.31c.1-.08-.31-1.54,1.91-.79,1.21.41,1.58,2.97,3.61,2.97,1.71,0,2.76-2.39,5.2-1.64,1.02.31,2.75,2.33,2.44,3.55-.09.33-2.22,3.81-2.44,3.87-3.55,1-4.64-3.02-6.52-3.07-2.13-.06-3.66,4.18-5.95,3.94,1.27-3.04-1.77-6.45-1.34-9.02.45-2.72,2.93.32,3.09.2Z"/>
    </g>
  </g>
</svg>